<svg xmlns="http://www.w3.org/2000/svg" viewBox="0 0 64 64">
<path d="M 27,12 L 26,13 L 24,13 L 23,14 L 22,14 L 20,16 L 19,16 L 16,19 L 16,20 L 15,21 L 15,22 L 14,23 L 14,24 L 13,25 L 13,28 L 12,29 L 12,34 L 13,35 L 13,38 L 14,39 L 14,40 L 15,41 L 15,42 L 21,48 L 22,48 L 23,49 L 24,49 L 25,50 L 28,50 L 29,51 L 35,51 L 36,50 L 38,50 L 39,49 L 40,49 L 41,48 L 42,48 L 43,47 L 44,47 L 44,45 L 42,43 L 41,43 L 40,44 L 39,44 L 38,45 L 37,45 L 36,46 L 27,46 L 26,45 L 25,45 L 23,43 L 22,43 L 19,40 L 19,39 L 18,38 L 18,37 L 17,36 L 17,27 L 18,26 L 18,25 L 19,24 L 19,23 L 24,18 L 25,18 L 26,17 L 28,17 L 29,16 L 34,16 L 35,17 L 37,17 L 38,18 L 39,18 L 41,20 L 42,20 L 44,18 L 44,16 L 43,15 L 42,15 L 40,13 L 38,13 L 37,12 Z" fill="#10B981" fill-opacity="1"/>
<path d="M 40,23 L 31,32 L 26,27 L 24,27 L 23,28 L 23,31 L 29,37 L 33,37 L 43,27 L 43,23 Z" fill="#111827" fill-opacity="1"/>

</svg>