<?xml version="1.0" encoding="UTF-8"?>
<svg version="1.1" xmlns="http://www.w3.org/2000/svg" width="250" height="250">
<path d="M0 0 C1.13674667 -0.00997513 2.27349335 -0.01995026 3.44468689 -0.03022766 C4.6827005 -0.03089233 5.92071411 -0.03155701 7.19624329 -0.03224182 C8.50739609 -0.04056534 9.81854889 -0.04888885 11.16943359 -0.0574646 C14.76061213 -0.07937397 18.35170552 -0.08820411 21.94294333 -0.09329104 C24.1902013 -0.09693998 26.43743715 -0.10318294 28.68468666 -0.11029243 C36.53522847 -0.13477821 44.38570432 -0.14783615 52.23628235 -0.15138245 C59.53621761 -0.15501319 66.83573127 -0.18487734 74.1355378 -0.22678703 C80.41601223 -0.26157102 86.69634754 -0.27693231 92.97691756 -0.27762848 C96.7220592 -0.27841879 100.46677148 -0.28704232 104.21181297 -0.31562614 C108.39572349 -0.34684569 112.57864106 -0.33770863 116.76264954 -0.32521057 C117.99054199 -0.34004486 119.21843445 -0.35487915 120.48353577 -0.37016296 C130.21429516 -0.28760834 137.33207065 2.01708116 144.24043274 9.02415466 C150.82039011 16.46096152 150.73840889 26.05791749 150.69111633 35.45384216 C150.69900177 37.39459625 150.69900177 37.39459625 150.70704651 39.3745575 C150.72063753 42.89939692 150.71545581 46.42397076 150.70590925 49.94881439 C150.69826974 53.65215731 150.70537011 57.35547874 150.71006775 61.05882263 C150.71551288 67.27582344 150.70836645 73.49271704 150.69404602 79.70970154 C150.67772184 86.87899556 150.68301124 94.04803357 150.69952524 101.2173214 C150.71317566 107.3925615 150.71504245 113.5677249 150.70720923 119.74297523 C150.70255219 123.42249874 150.70185323 127.10190224 150.7118187 130.78141785 C150.72216036 134.88591977 150.70779316 138.98998608 150.69111633 143.09446716 C150.69718903 144.30096924 150.70326172 145.50747131 150.70951843 146.75053406 C150.6433541 155.56409642 149.90456348 163.33274732 143.52558899 169.90940857 C142.72524231 170.7469165 141.92489563 171.58442444 141.10029602 172.4473114 C140.17716614 173.38016968 139.25403625 174.31302795 138.30293274 175.27415466 C137.23029752 176.37852635 136.1585689 177.48377909 135.08760071 178.58976746 C131.33009309 182.45463349 127.53805078 186.28468289 123.74043274 190.11009216 C123.05383575 190.80201283 122.36723877 191.49393349 121.65983582 192.20682144 C118.03460269 195.85857414 114.40584441 199.50678566 110.77461243 203.15257263 C107.78644145 206.15413835 104.80573416 209.16283161 101.83125305 212.17796326 C98.2139868 215.84462673 94.58452427 219.49878706 90.94602966 223.14438248 C89.57034906 224.52674959 88.19890503 225.9133471 86.83195496 227.30434799 C84.91857391 229.24950017 82.9898497 231.17812447 81.05683899 233.10374451 C80.50488861 233.67210022 79.95293823 234.24045593 79.38426208 234.82603455 C72.69837407 241.40852157 64.66518328 244.38936735 55.32044983 244.40786743 C54.34212692 244.41213242 53.36380402 244.4163974 52.35583496 244.42079163 C50.76295403 244.42011185 50.76295403 244.42011185 49.13789368 244.41941833 C48.01045242 244.42277695 46.88301117 244.42613556 45.72140503 244.42959595 C41.99336139 244.43909637 38.26536273 244.44104871 34.53730774 244.44212341 C31.94284547 244.44533696 29.34838339 244.44870111 26.75392151 244.45220947 C21.31338504 244.45819871 15.87286638 244.46009247 10.43232727 244.4594574 C4.16066693 244.45885743 -2.11090717 244.46939539 -8.38254571 244.48520106 C-14.43256252 244.49990031 -20.48253285 244.50344413 -26.53256989 244.50284767 C-29.09851686 244.50402577 -31.66446452 244.50843802 -34.23040009 244.51618004 C-37.82515552 244.52600944 -41.41969088 244.52308992 -45.01445007 244.51707458 C-46.06827377 244.52269409 -47.12209747 244.5283136 -48.20785522 244.53410339 C-58.54490489 244.49028919 -66.65393995 243.09909959 -74.69706726 236.27415466 C-81.35127297 229.06947938 -81.99925867 221.50344172 -82.01933289 212.04319763 C-82.0342276 210.35904503 -82.0342276 210.35904503 -82.04942322 208.64086914 C-82.07859089 204.93266834 -82.09225889 201.22463876 -82.10331726 197.51634216 C-82.11482792 194.9304962 -82.12634328 192.34465025 -82.13786316 189.75880432 C-82.15618164 185.02906333 -82.16878983 180.29939034 -82.17485666 175.56962001 C-82.18380142 168.63669394 -82.21883058 161.70455979 -82.27685785 154.77187431 C-82.32554768 148.74264631 -82.34075719 142.71378875 -82.34420776 136.68434525 C-82.35023825 134.13200194 -82.36621882 131.57966106 -82.39257812 129.02744675 C-82.63511679 103.73498738 -82.63511679 103.73498738 -75.69706726 94.27415466 C-74.89555782 92.98043098 -74.09543674 91.68584537 -73.29716492 90.39012146 C-72.53377775 89.26727667 -71.76336561 88.14917698 -70.98612976 87.03587341 C-70.11339224 85.75556625 -69.24134535 84.47478809 -68.36991882 83.19358826 C-67.9279718 82.54790894 -67.48602478 81.90222961 -67.03068542 81.23698425 C-64.82484534 77.99041166 -62.68019847 74.70421642 -60.53300476 71.41868591 C-59.64132433 70.05749365 -58.74947572 68.69641154 -57.85746765 67.33543396 C-57.40388885 66.64315704 -56.95031006 65.95088013 -56.48298645 65.23762512 C-53.48502954 60.6671885 -50.4761087 56.10395067 -47.46957397 51.53915405 C-44.22528907 46.60927322 -40.99894597 41.66812883 -37.78355408 36.71936035 C-35.6372082 33.42168893 -33.47915717 30.13178412 -31.31871033 26.84333801 C-30.28885436 25.27017204 -29.26396795 23.69374024 -28.24436951 22.11390686 C-14.00542642 0.06610315 -14.00542642 0.06610315 0 0 Z " fill="#E1725B" transform="translate(89.69706726074219,1.7258453369140625)"/>
<path d="M0 0 C9.28125 -0.061875 18.5625 -0.12375 28.125 -0.1875 C31.02555176 -0.21481201 33.92610352 -0.24212402 36.91455078 -0.27026367 C39.25813381 -0.27903966 41.60172147 -0.28668094 43.9453125 -0.29296875 C45.12601318 -0.30831665 46.30671387 -0.32366455 47.52319336 -0.33947754 C60.10426381 -0.34335659 74.25274571 1.16246117 84.0625 9.8203125 C91.01325422 17.20548886 92.47841261 24.00886973 92.42651367 33.98730469 C92.17840941 41.26161937 90.49917827 47.08429202 85.75 52.625 C84.88375 53.305625 84.88375 53.305625 84 54 C85.23944467 57.87922347 86.64486785 61.64474941 88.20849609 65.40478516 C91.47812549 73.28537866 94 80.35429293 94 89 C80.14 89 66.28 89 52 89 C51.01 82.4 50.02 75.8 49 69 C48.67 67.68 48.34 66.36 48 65 C47.01 64.67 46.02 64.34 45 64 C45 72.58 45 81.16 45 90 C30.15 90 15.3 90 0 90 C0 60.3 0 30.6 0 0 Z " fill="#FEFCFC" transform="translate(108,31)"/>
<path d="M0 0 C1.98 0 3.96 0 6 0 C7.80746134 1.80746134 7.17303483 4.50445781 7.1875 6.9375 C7.20167969 8.01902344 7.21585938 9.10054687 7.23046875 10.21484375 C7 13 7 13 5 15 C3.35 15 1.7 15 0 15 C0 10.05 0 5.1 0 0 Z " fill="#E17762" transform="translate(153,69)"/>
</svg>
